<svg xmlns="http://www.w3.org/2000/svg" viewBox="0 0 150 200" focusable="false"><defs><linearGradient id="New_Gradient_Swatch_1" x1="31.48" x2="98.54" y1="28.11" y2="28.11" gradientUnits="userSpaceOnUse"><stop offset="0" stop-color="#12b212"/><stop offset="1" stop-color="#0f0"/></linearGradient><style>.cls-3{fill:#980200}.cls-4{fill:red}</style></defs><title>Vortex with Wordmark</title><path d="M38.06 147.31a8.12 8.12 0 015 1.29 4.36 4.36 0 011.66 3.66 5.12 5.12 0 01-.48 2.31 3.87 3.87 0 01-1.38 1.54 6.17 6.17 0 01-2.2.85 14.47 14.47 0 01-2.93.27H35.6v6.16H34v-15.64a11.58 11.58 0 011.95-.33c.77-.07 1.46-.11 2.11-.11zm.07 1.36c-.59 0-1.08 0-1.49.06l-1 .1v7h2a15.81 15.81 0 002.29-.15 5 5 0 001.75-.55 2.81 2.81 0 001.12-1.12 3.73 3.73 0 00.39-1.81 3.22 3.22 0 00-.43-1.75 3.16 3.16 0 00-1.12-1.09 5.07 5.07 0 00-1.6-.57 11.14 11.14 0 00-1.91-.12zm12.35-.76a1.11 1.11 0 01-.32.84 1.15 1.15 0 01-1.57 0 1.11 1.11 0 01-.32-.84 1.11 1.11 0 112.21 0zm-.35 15.48h-1.49V151.5h1.49zm3.71-7.39H59v1.45h-5.16z"/><path fill="#020202" d="M62.49 163.39V146.1l3.43-.56v5.8a6.59 6.59 0 01.88-.22 5.48 5.48 0 011-.1 6.44 6.44 0 012.45.4 3.82 3.82 0 011.56 1.14 4.37 4.37 0 01.83 1.75 9.71 9.71 0 01.24 2.25v6.83H69.5V157a4.78 4.78 0 00-.42-2.35 1.71 1.71 0 00-1.58-.69 4.74 4.74 0 00-.86.08c-.27 0-.51.11-.72.17v9.2zm25.94-6.07a7.77 7.77 0 01-.41 2.61 5.74 5.74 0 01-1.2 2 5.25 5.25 0 01-1.87 1.3 6.22 6.22 0 01-2.45.46 6.16 6.16 0 01-2.43-.46A5.25 5.25 0 0178.2 162a5.93 5.93 0 01-1.22-2 7.52 7.52 0 01-.44-2.61 7.2 7.2 0 01.45-2.6 5.89 5.89 0 011.24-2 5.67 5.67 0 011.89-1.29 6.19 6.19 0 012.38-.5 6.26 6.26 0 012.4.46 5.53 5.53 0 011.88 1.29 6 6 0 011.22 2 7.43 7.43 0 01.43 2.57zm-3.49 0a4.27 4.27 0 00-.64-2.5 2.07 2.07 0 00-1.8-.9 2.11 2.11 0 00-1.82.9 4.27 4.27 0 00-.64 2.5 4.35 4.35 0 00.64 2.52 2.09 2.09 0 001.82.93 2 2 0 001.8-.93 4.35 4.35 0 00.64-2.52zm12.06 6.3a8.36 8.36 0 01-2.43-.32 3.6 3.6 0 01-1.47-.84 2.8 2.8 0 01-.74-1.31 7.08 7.08 0 01-.19-1.74V146.1l3.43-.56v13.18a4.15 4.15 0 00.07.83 1.34 1.34 0 00.26.62 1.45 1.45 0 00.56.42 3.37 3.37 0 001 .2zm2.93-6.19a7.34 7.34 0 01.5-2.81 6 6 0 011.3-2 5.3 5.3 0 011.85-1.21 5.72 5.72 0 012.15-.42 5.35 5.35 0 014.07 1.58 6.46 6.46 0 011.5 4.63v1.29h-7.78a2.3 2.3 0 001 1.68 4 4 0 002.35.62 10.35 10.35 0 001.85-.17 7.19 7.19 0 001.48-.43l.46 2.79a4.8 4.8 0 01-.73.27 10.53 10.53 0 01-1 .24c-.37.07-.78.13-1.21.17a11 11 0 01-1.28.07 7.64 7.64 0 01-2.84-.48 5.38 5.38 0 01-2-1.32 5.32 5.32 0 01-1.18-2 8 8 0 01-.49-2.5zm8-1.31a3.1 3.1 0 00-.15-.85 2 2 0 00-.39-.73 2 2 0 00-.66-.53 2.19 2.19 0 00-1-.21 2.25 2.25 0 00-1 .2 2 2 0 00-.69.51 2.33 2.33 0 00-.43.75 5.43 5.43 0 00-.22.86z"/><path d="M118.64 150.25a3.93 3.93 0 01-.27 1.5 3.53 3.53 0 01-.74 1.12 3.18 3.18 0 01-1.07.69 3.41 3.41 0 01-1.27.24 3.46 3.46 0 01-1.28-.24 3.28 3.28 0 01-1.07-.69 3.5 3.5 0 01-.73-1.12 4.13 4.13 0 010-3 3.4 3.4 0 01.73-1.12 3.31 3.31 0 011.07-.7 3.46 3.46 0 011.28-.24 3.41 3.41 0 011.27.24 3.2 3.2 0 011.07.7 3.42 3.42 0 01.74 1.12 3.92 3.92 0 01.27 1.5zm-.72 0a3.44 3.44 0 00-.19-1.18 2.75 2.75 0 00-.55-.92 2.31 2.31 0 00-.83-.58 2.64 2.64 0 00-1.06-.21 2.69 2.69 0 00-1.07.21 2.31 2.31 0 00-.83.58 3.12 3.12 0 00-.55.92 3.79 3.79 0 000 2.37 3 3 0 00.55.91 2.33 2.33 0 00.83.59 2.69 2.69 0 001.07.21 2.64 2.64 0 001.06-.21 2.33 2.33 0 00.83-.59 2.61 2.61 0 00.55-.91 3.46 3.46 0 00.19-1.19zm-1.66 2a5.87 5.87 0 00-.51-.84 8.11 8.11 0 00-.48-.64h-.66v1.48h-.7v-3.85a5 5 0 01.56-.09h.54a2.23 2.23 0 011.29.32 1.09 1.09 0 01.44 1 1.12 1.12 0 01-.19.63 1.25 1.25 0 01-.55.42l.23.29.26.39.28.45q.14.24.24.48zm-1.65-2h.39a1.78 1.78 0 00.74-.13.48.48 0 00.29-.5.53.53 0 00-.28-.51 1.51 1.51 0 00-.67-.14h-.45z"/><path fill="url(#New_Gradient_Swatch_1)" d="M65.33 48C49.11 46.26 32.78 34 31.48 8.06c25.17 0 38.63 14.9 39.93 38.51 4.76-28.32 27.07-25 27.07-25 1.06 16.05-12.12 25.78-27.07 26.59-4.2-8.85-29.36-30.56-29.36-30.56a.06.06 0 00-.1.08S66.22 38.83 65.33 48"/><path d="M72.93 138c-1.57-.1-16.22-.65-17.11-17.11C55.1 110.91 63 103.5 63 93.8c-1.79-24.21-34.22-21.21-34.22 0a19.94 19.94 0 005.83 14.14l24.19 24.18A19.93 19.93 0 0072.93 138" class="cls-3"/><path d="M117.09 93.81c-.09 1.57-.65 16.19-17.09 17.11-10 .73-17.37-7.18-27.08-7.18C48.69 105.53 51.69 138 72.9 138a19.93 19.93 0 0014.1-5.86L111.23 108a19.94 19.94 0 005.83-14.15" class="cls-4"/><path d="M72.93 49.65c1.57.1 16.22.65 17.11 17.11.73 10-7.18 17.38-7.18 27.08 1.79 24.21 34.22 21.21 34.22 0a19.94 19.94 0 00-5.83-14.14L87.07 55.52a19.93 19.93 0 00-14.14-5.84" class="cls-3"/><path d="M28.85 93.81c.09-1.57.65-16.22 17.11-17.11 10-.72 17.37 7.19 27.08 7.19 24.21-1.8 21.21-34.23 0-34.23a20 20 0 00-14.14 5.82L34.71 79.67a19.94 19.94 0 00-5.83 14.14" class="cls-4"/></svg>