<svg xmlns="http://www.w3.org/2000/svg" xmlns:xlink="http://www.w3.org/1999/xlink" viewBox="0 0 89.87 155.65"><defs><style>.cls-1{fill:#020202;}.cls-2{fill:url(#New_Gradient_Swatch_1);}.cls-3{fill:#980200;}.cls-4{fill:red;}</style><linearGradient id="New_Gradient_Swatch_1" x1="2.71" y1="20.04" x2="69.77" y2="20.04" gradientUnits="userSpaceOnUse"><stop offset="0" stop-color="#12b212"/><stop offset="1" stop-color="lime"/></linearGradient></defs><title>Asset 20</title><g id="Layer_2" data-name="Layer 2"><g id="RedBerry_LogoType" data-name="RedBerry LogoType"><g id="Home_Logo" data-name="Home Logo"><path d="M9.29,139.25a8.17,8.17,0,0,1,5,1.29A4.38,4.38,0,0,1,16,144.2a5.12,5.12,0,0,1-.48,2.31,3.87,3.87,0,0,1-1.38,1.54,6.17,6.17,0,0,1-2.2.85,14.4,14.4,0,0,1-2.93.27H6.83v6.16H5.26V139.69a11.76,11.76,0,0,1,2-.33C8,139.29,8.65,139.25,9.29,139.25Zm.07,1.36c-.59,0-1.08,0-1.49.06l-1,.1v7h2a15.76,15.76,0,0,0,2.28-.15,5,5,0,0,0,1.75-.55A2.75,2.75,0,0,0,14,146a3.73,3.73,0,0,0,.39-1.81,3.22,3.22,0,0,0-.43-1.75,3.08,3.08,0,0,0-1.12-1.09,5,5,0,0,0-1.6-.57A11.14,11.14,0,0,0,9.36,140.61Z"/><path d="M21.71,139.85a1.12,1.12,0,0,1-.32.84,1.15,1.15,0,0,1-1.57,0,1.12,1.12,0,0,1-.32-.84,1.11,1.11,0,1,1,2.21,0Zm-.35,15.48H19.87V143.44h1.49Z"/><path d="M25.07,148h5.19v1.45H25.07Z"/><path class="cls-1" d="M33.72,155.33V138l3.43-.56v5.8a6.59,6.59,0,0,1,.88-.22,5.48,5.48,0,0,1,1-.1,6.44,6.44,0,0,1,2.45.4,3.82,3.82,0,0,1,1.56,1.14,4.37,4.37,0,0,1,.83,1.75,9.71,9.71,0,0,1,.24,2.25v6.83H40.74v-6.42a4.74,4.74,0,0,0-.43-2.34,1.7,1.7,0,0,0-1.58-.69,4.74,4.74,0,0,0-.86.08c-.27,0-.51.11-.72.17v9.2Z"/><path class="cls-1" d="M59.66,149.26a7.77,7.77,0,0,1-.41,2.61,5.6,5.6,0,0,1-1.2,2,5.25,5.25,0,0,1-1.87,1.3,6.22,6.22,0,0,1-2.45.46,6.16,6.16,0,0,1-2.43-.46,5.34,5.34,0,0,1-1.87-1.3,5.93,5.93,0,0,1-1.22-2,7.52,7.52,0,0,1-.44-2.61,7.2,7.2,0,0,1,.45-2.6,5.89,5.89,0,0,1,1.24-2,5.67,5.67,0,0,1,1.89-1.29,6.44,6.44,0,0,1,4.78,0A5.53,5.53,0,0,1,58,144.66a5.84,5.84,0,0,1,1.22,2A7.43,7.43,0,0,1,59.66,149.26Zm-3.49,0a4.34,4.34,0,0,0-.63-2.5,2.28,2.28,0,0,0-3.63,0,4.27,4.27,0,0,0-.64,2.5,4.35,4.35,0,0,0,.64,2.52,2.24,2.24,0,0,0,3.63,0A4.43,4.43,0,0,0,56.17,149.26Z"/><path class="cls-1" d="M68.22,155.56a8.41,8.41,0,0,1-2.43-.32,3.6,3.6,0,0,1-1.47-.84,2.79,2.79,0,0,1-.73-1.31,7.05,7.05,0,0,1-.2-1.74V138l3.43-.56v13.18a4.15,4.15,0,0,0,.07.83,1.34,1.34,0,0,0,.26.62,1.45,1.45,0,0,0,.56.42,3.37,3.37,0,0,0,1,.2Z"/><path class="cls-1" d="M71.16,149.37a7.34,7.34,0,0,1,.5-2.81,6,6,0,0,1,1.3-2,5.3,5.3,0,0,1,1.85-1.21,5.72,5.72,0,0,1,2.15-.42A5.35,5.35,0,0,1,81,144.49a6.46,6.46,0,0,1,1.5,4.63q0,.3,0,.66c0,.23,0,.44,0,.63H74.68a2.32,2.32,0,0,0,1,1.68,4,4,0,0,0,2.35.62,10.35,10.35,0,0,0,1.85-.17,7.19,7.19,0,0,0,1.48-.43l.46,2.78a3.86,3.86,0,0,1-.73.28,10.53,10.53,0,0,1-1,.24c-.37.07-.77.13-1.2.17a11.15,11.15,0,0,1-1.29.07,7.64,7.64,0,0,1-2.84-.48,5.46,5.46,0,0,1-2-1.32,5.32,5.32,0,0,1-1.18-2A8,8,0,0,1,71.16,149.37Zm8-1.31a3.1,3.1,0,0,0-.15-.85,2,2,0,0,0-.39-.73A2,2,0,0,0,78,146a2.17,2.17,0,0,0-1-.21,2.27,2.27,0,0,0-1,.2,2,2,0,0,0-.69.51,2.33,2.33,0,0,0-.43.75,5.17,5.17,0,0,0-.22.86Z"/><path d="M89.87,142.19a3.93,3.93,0,0,1-.27,1.5,3.53,3.53,0,0,1-.74,1.12,3.18,3.18,0,0,1-1.07.69,3.41,3.41,0,0,1-1.27.24,3.46,3.46,0,0,1-1.28-.24,3.28,3.28,0,0,1-1.07-.69,3.5,3.5,0,0,1-.73-1.12,4.13,4.13,0,0,1,0-3,3.4,3.4,0,0,1,.73-1.12,3.31,3.31,0,0,1,1.07-.7,3.46,3.46,0,0,1,1.28-.24,3.41,3.41,0,0,1,1.27.24,3.2,3.2,0,0,1,1.07.7,3.42,3.42,0,0,1,.74,1.12A3.92,3.92,0,0,1,89.87,142.19Zm-.71,0A3.44,3.44,0,0,0,89,141a2.9,2.9,0,0,0-.54-.92,2.35,2.35,0,0,0-.84-.58,2.64,2.64,0,0,0-1.06-.21,2.69,2.69,0,0,0-1.07.21,2.31,2.31,0,0,0-.83.58,2.9,2.9,0,0,0-.54.92,3.44,3.44,0,0,0-.2,1.18,3.4,3.4,0,0,0,.2,1.18,2.7,2.7,0,0,0,.54.92,2.33,2.33,0,0,0,.83.59,2.69,2.69,0,0,0,1.07.21,2.64,2.64,0,0,0,1.06-.21,2.37,2.37,0,0,0,.84-.59,2.7,2.7,0,0,0,.54-.92A3.4,3.4,0,0,0,89.16,142.19Zm-1.67,1.95a6.36,6.36,0,0,0-.51-.83,6.21,6.21,0,0,0-.48-.64h-.66v1.47h-.69v-3.8a4.51,4.51,0,0,1,.55-.09l.54,0a2.21,2.21,0,0,1,1.29.32,1.08,1.08,0,0,1,.44,1,1,1,0,0,1-.19.63,1.25,1.25,0,0,1-.55.42l.23.29.26.39c.1.15.19.3.28.45s.17.32.24.47Zm-1.65-2h.37A2,2,0,0,0,87,142a.48.48,0,0,0,.29-.5A.53.53,0,0,0,87,141a1.51,1.51,0,0,0-.67-.14h-.22l-.23,0Z"/></g><path id="Leaf_Path" data-name="Leaf Path" class="cls-2" d="M36.56,39.93C20.34,38.2,4,25.94,2.71,0,27.88,0,41.34,14.9,42.64,38.51c4.76-28.32,27.07-25,27.07-25,1.06,16.05-12.12,25.78-27.07,26.59C38.44,31.25,13.28,9.54,13.28,9.54a.06.06,0,0,0-.1.08S37.45,30.77,36.56,39.93"/><path id="LeftBerry" class="cls-3" d="M44.16,129.93c-1.57-.1-16.22-.65-17.11-17.11-.72-10,7.19-17.38,7.19-27.08C32.44,61.53,0,64.53,0,85.74H0A19.94,19.94,0,0,0,5.83,99.88L30,124.06a20,20,0,0,0,14.14,5.84"/><path id="BottomBerry" class="cls-4" d="M88.32,85.75c-.09,1.57-.65,16.22-17.11,17.11-10,.73-17.37-7.18-27.08-7.18-24.21,1.79-21.21,34.22,0,34.22h0a19.92,19.92,0,0,0,14.14-5.83L82.46,99.9a19.94,19.94,0,0,0,5.83-14.15"/><path id="RightBerry" class="cls-3" d="M44.16,41.59c1.57.09,16.22.65,17.11,17.11.73,10-7.18,17.38-7.18,27.08,1.79,24.21,34.22,21.21,34.22,0h0a19.94,19.94,0,0,0-5.83-14.14L58.3,47.45a20,20,0,0,0-14.14-5.83"/><path id="TopBerry" class="cls-4" d="M.08,85.75c.09-1.57.65-16.22,17.11-17.11,10-.72,17.37,7.19,27.08,7.19,24.21-1.8,21.21-34.23,0-34.23h0a19.92,19.92,0,0,0-14.14,5.83L5.94,71.61A19.94,19.94,0,0,0,.11,85.75"/></g></g></svg>