<svg xmlns="http://www.w3.org/2000/svg" viewBox="0 0 89.87 155.65">
  <defs>
    <linearGradient id="New_Gradient_Swatch_1" x1="2.71" x2="69.77" y1="20.04" y2="20.04" gradientUnits="userSpaceOnUse">
      <stop offset="0" stop-color="#12b212"/>
      <stop offset="1" stop-color="#0f0"/>
    </linearGradient>
    <style>
      .cls-3{fill:#980200}.cls-4{fill:red}
    </style>
  </defs>
  <path d="M9.29 139.25a8.17 8.17 0 015 1.29A4.38 4.38 0 0116 144.2a5.12 5.12 0 01-.48 2.31 3.87 3.87 0 01-1.38 1.54 6.17 6.17 0 01-2.2.85 14.4 14.4 0 01-2.93.27H6.83v6.16H5.26v-15.64a11.76 11.76 0 012-.33c.74-.07 1.39-.11 2.03-.11zm.07 1.36c-.59 0-1.08 0-1.49.06l-1 .1v7h2a15.76 15.76 0 002.28-.15 5 5 0 001.75-.55A2.75 2.75 0 0014 146a3.73 3.73 0 00.39-1.81 3.22 3.22 0 00-.43-1.75 3.08 3.08 0 00-1.12-1.09 5 5 0 00-1.6-.57 11.14 11.14 0 00-1.88-.17zm12.35-.76a1.12 1.12 0 01-.32.84 1.15 1.15 0 01-1.57 0 1.12 1.12 0 01-.32-.84 1.11 1.11 0 112.21 0zm-.35 15.48h-1.49v-11.89h1.49zm3.71-7.33h5.19v1.45h-5.19z"/>
  <path fill="#020202" d="M33.72 155.33V138l3.43-.56v5.8a6.59 6.59 0 01.88-.22 5.48 5.48 0 011-.1 6.44 6.44 0 012.45.4 3.82 3.82 0 011.56 1.14 4.37 4.37 0 01.83 1.75 9.71 9.71 0 01.24 2.25v6.83h-3.37v-6.42a4.74 4.74 0 00-.43-2.34 1.7 1.7 0 00-1.58-.69 4.74 4.74 0 00-.86.08c-.27 0-.51.11-.72.17v9.2zm25.94-6.07a7.77 7.77 0 01-.41 2.61 5.6 5.6 0 01-1.2 2 5.25 5.25 0 01-1.87 1.3 6.22 6.22 0 01-2.45.46 6.16 6.16 0 01-2.43-.46 5.34 5.34 0 01-1.87-1.3 5.93 5.93 0 01-1.22-2 7.52 7.52 0 01-.44-2.61 7.2 7.2 0 01.45-2.6 5.89 5.89 0 011.24-2 5.67 5.67 0 011.89-1.29 6.44 6.44 0 014.78 0 5.53 5.53 0 011.87 1.29 5.84 5.84 0 011.22 2 7.43 7.43 0 01.44 2.6zm-3.49 0a4.34 4.34 0 00-.63-2.5 2.28 2.28 0 00-3.63 0 4.27 4.27 0 00-.64 2.5 4.35 4.35 0 00.64 2.52 2.24 2.24 0 003.63 0 4.43 4.43 0 00.63-2.52zm12.05 6.3a8.41 8.41 0 01-2.43-.32 3.6 3.6 0 01-1.47-.84 2.79 2.79 0 01-.73-1.31 7.05 7.05 0 01-.2-1.74V138l3.43-.56v13.18a4.15 4.15 0 00.07.83 1.34 1.34 0 00.26.62 1.45 1.45 0 00.56.42 3.37 3.37 0 001 .2zm2.94-6.19a7.34 7.34 0 01.5-2.81 6 6 0 011.3-2 5.3 5.3 0 011.85-1.21 5.72 5.72 0 012.15-.42 5.35 5.35 0 014.04 1.56 6.46 6.46 0 011.5 4.63v1.29h-7.82a2.32 2.32 0 001 1.68 4 4 0 002.35.62 10.35 10.35 0 001.85-.17 7.19 7.19 0 001.48-.43l.46 2.78a3.86 3.86 0 01-.73.28 10.53 10.53 0 01-1 .24c-.37.07-.77.13-1.2.17a11.15 11.15 0 01-1.29.07 7.64 7.64 0 01-2.84-.48 5.46 5.46 0 01-2-1.32 5.32 5.32 0 01-1.18-2 8 8 0 01-.42-2.48zm8-1.31a3.1 3.1 0 00-.15-.85 2 2 0 00-.39-.73A2 2 0 0078 146a2.17 2.17 0 00-1-.21 2.27 2.27 0 00-1 .2 2 2 0 00-.69.51 2.33 2.33 0 00-.43.75 5.17 5.17 0 00-.22.86z"/>
  <path d="M89.87 142.19a3.93 3.93 0 01-.27 1.5 3.53 3.53 0 01-.74 1.12 3.18 3.18 0 01-1.07.69 3.41 3.41 0 01-1.27.24 3.46 3.46 0 01-1.28-.24 3.28 3.28 0 01-1.07-.69 3.5 3.5 0 01-.73-1.12 4.13 4.13 0 010-3 3.4 3.4 0 01.73-1.12 3.31 3.31 0 011.07-.7 3.46 3.46 0 011.28-.24 3.41 3.41 0 011.27.24 3.2 3.2 0 011.07.7 3.42 3.42 0 01.74 1.12 3.92 3.92 0 01.27 1.5zm-.71 0A3.44 3.44 0 0089 141a2.9 2.9 0 00-.54-.92 2.35 2.35 0 00-.84-.58 2.64 2.64 0 00-1.06-.21 2.69 2.69 0 00-1.07.21 2.31 2.31 0 00-.83.58 2.9 2.9 0 00-.54.92 3.44 3.44 0 00-.2 1.18 3.4 3.4 0 00.2 1.18 2.7 2.7 0 00.54.92 2.33 2.33 0 00.83.59 2.69 2.69 0 001.07.21 2.64 2.64 0 001.06-.21 2.37 2.37 0 00.84-.59 2.7 2.7 0 00.54-.92 3.4 3.4 0 00.16-1.17zm-1.67 1.95a6.36 6.36 0 00-.51-.83 6.21 6.21 0 00-.48-.64h-.66v1.47h-.69v-3.8a4.51 4.51 0 01.55-.09h.54a2.21 2.21 0 011.29.32 1.08 1.08 0 01.44 1 1 1 0 01-.19.63 1.25 1.25 0 01-.55.42l.23.29.26.39c.1.15.19.3.28.45s.17.32.24.47zm-1.65-2h.37A2 2 0 0087 142a.48.48 0 00.29-.5.53.53 0 00-.29-.5 1.51 1.51 0 00-.67-.14h-.45z"/>
  <path fill="url(#New_Gradient_Swatch_1)" d="M36.56 39.93C20.34 38.2 4 25.94 2.71 0c25.17 0 38.63 14.9 39.93 38.51 4.76-28.32 27.07-25 27.07-25 1.06 16.05-12.12 25.78-27.07 26.59-4.2-8.85-29.36-30.56-29.36-30.56a.06.06 0 00-.1.08s24.27 21.15 23.38 30.31"/>
  <path d="M44.16 129.93c-1.57-.1-16.22-.65-17.11-17.11-.72-10 7.19-17.38 7.19-27.08C32.44 61.53 0 64.53 0 85.74a19.94 19.94 0 005.83 14.14L30 124.06a20 20 0 0014.14 5.84" class="cls-3"/>
  <path d="M88.32 85.75c-.09 1.57-.65 16.22-17.11 17.11-10 .73-17.37-7.18-27.08-7.18-24.21 1.79-21.21 34.22 0 34.22a19.92 19.92 0 0014.14-5.83L82.46 99.9a19.94 19.94 0 005.83-14.15" class="cls-4"/>
  <path d="M44.16 41.59c1.57.09 16.22.65 17.11 17.11.73 10-7.18 17.38-7.18 27.08 1.79 24.21 34.22 21.21 34.22 0a19.94 19.94 0 00-5.83-14.14L58.3 47.45a20 20 0 00-14.14-5.83" class="cls-3"/>
  <path d="M.08 85.75c.09-1.57.65-16.22 17.11-17.11 10-.72 17.37 7.19 27.08 7.19 24.21-1.8 21.21-34.23 0-34.23a19.92 19.92 0 00-14.14 5.83L5.94 71.61A19.94 19.94 0 00.11 85.75" class="cls-4"/>
</svg>
