<svg xmlns="http://www.w3.org/2000/svg" xmlns:xlink="http://www.w3.org/1999/xlink" style="color-scheme:light dark;supported-color-schemes:light dark" viewBox="0 0 90 160">
  <defs>
    <linearGradient id="a" x1="0" x2=".8" y1="0" y2="0">
      <stop offset="0" stop-color="#22b225"/>
      <stop offset="1" stop-color="#29fc2e"/>
    </linearGradient>
    <style>
      @media (prefers-color-scheme:dark){#t{fill:#fff}}
    </style>
    <path id="b" d="M1 85.459c0-1.717 1.707-16.993 16.907-16.993 9.998-.717 17.766 7.169 27.464 7.169 24.208-1.814 20.952-34.293-.252-34.293-5.3-.014-10.179 2.22-13.929 5.954L6.738 71.747C2.68 75.792 1 80.972 1 85.459"/>
  </defs>
  <path fill="url(#a)" d="M37.4 40.145C21.18 38.415 4.84 26.155 3.55.215c25.17 0 38.63 14.9 39.93 38.51 4.76-28.32 27.07-25 27.07-25 1.06 16.05-12.12 25.78-27.07 26.59-4.2-8.85-29.36-30.56-29.36-30.56a.07.07 0 0 0-.11.08s24.28 21.15 23.39 30.31"/>
  <use xlink:href="#b" fill="#f60d1a" transform="rotate(180 45 85.3)"/>
  <use xlink:href="#b" fill="#96060c" transform="rotate(90 45 85.3)"/>
  <use xlink:href="#b" fill="#96060c" transform="rotate(-90 45 85.3)"/>
  <use xlink:href="#b" fill="#f60d1a"/>
  <path id="t" d="M7.29 139.25a8.17 8.17 0 0 1 5 1.29A4.38 4.38 0 0 1 14 144.2a5.1 5.1 0 0 1-.48 2.31 3.87 3.87 0 0 1-1.38 1.54 6.2 6.2 0 0 1-2.2.85 14.4 14.4 0 0 1-2.93.27H4.83v6.16H3.26v-15.64a12 12 0 0 1 2-.33c.74-.07 1.39-.11 2.03-.11m.07 1.36c-.59 0-1.08 0-1.49.06l-1 .1v7h2a16 16 0 0 0 2.28-.15 5 5 0 0 0 1.75-.55A2.75 2.75 0 0 0 12 146a3.7 3.7 0 0 0 .39-1.81 3.2 3.2 0 0 0-.43-1.75 3.1 3.1 0 0 0-1.12-1.09 5 5 0 0 0-1.6-.57 11 11 0 0 0-1.88-.17m12.35-.76a1.12 1.12 0 0 1-.32.84 1.15 1.15 0 0 1-1.57 0 1.12 1.12 0 0 1-.32-.84 1.11 1.11 0 1 1 2.21 0m-.35 15.48h-1.49v-11.89h1.49zm3.71-7.33h5.19v1.45h-5.19zm8.65 7.33V138l3.43-.56v5.8a7 7 0 0 1 .88-.22 5.5 5.5 0 0 1 1-.1 6.4 6.4 0 0 1 2.45.4 3.8 3.8 0 0 1 1.56 1.14 4.4 4.4 0 0 1 .83 1.75 9.7 9.7 0 0 1 .24 2.25v6.83h-3.37v-6.42a4.74 4.74 0 0 0-.43-2.34 1.7 1.7 0 0 0-1.58-.69 4.7 4.7 0 0 0-.86.08c-.27 0-.51.11-.72.17v9.2zm25.94-6.07a7.8 7.8 0 0 1-.41 2.61 5.6 5.6 0 0 1-1.2 2 5.25 5.25 0 0 1-1.87 1.3 6.2 6.2 0 0 1-2.45.46 6.2 6.2 0 0 1-2.43-.46 5.3 5.3 0 0 1-1.87-1.3 5.9 5.9 0 0 1-1.22-2 7.5 7.5 0 0 1-.44-2.61 7.2 7.2 0 0 1 .45-2.6 5.9 5.9 0 0 1 1.24-2 5.7 5.7 0 0 1 1.89-1.29 6.44 6.44 0 0 1 4.78 0 5.5 5.5 0 0 1 1.87 1.29 5.8 5.8 0 0 1 1.22 2 7.4 7.4 0 0 1 .44 2.6m-3.49 0a4.34 4.34 0 0 0-.63-2.5 2.28 2.28 0 0 0-3.63 0 4.27 4.27 0 0 0-.64 2.5 4.35 4.35 0 0 0 .64 2.52 2.24 2.24 0 0 0 3.63 0 4.43 4.43 0 0 0 .63-2.52m12.05 6.3a8.4 8.4 0 0 1-2.43-.32 3.6 3.6 0 0 1-1.47-.84 2.8 2.8 0 0 1-.73-1.31 7 7 0 0 1-.2-1.74V138l3.43-.56v13.18a4 4 0 0 0 .07.83 1.34 1.34 0 0 0 .26.62 1.45 1.45 0 0 0 .56.42 3.4 3.4 0 0 0 1 .2zm2.94-6.19a7.3 7.3 0 0 1 .5-2.81 6 6 0 0 1 1.3-2 5.3 5.3 0 0 1 1.85-1.21 5.7 5.7 0 0 1 2.15-.42 5.35 5.35 0 0 1 4.04 1.56 6.46 6.46 0 0 1 1.5 4.63v1.29h-7.82a2.32 2.32 0 0 0 1 1.68 4 4 0 0 0 2.35.62 10.4 10.4 0 0 0 1.85-.17 7.2 7.2 0 0 0 1.48-.43l.46 2.78a4 4 0 0 1-.73.28 11 11 0 0 1-1 .24c-.37.07-.77.13-1.2.17a11 11 0 0 1-1.29.07 7.6 7.6 0 0 1-2.84-.48 5.5 5.5 0 0 1-2-1.32 5.3 5.3 0 0 1-1.18-2 8 8 0 0 1-.42-2.48m8-1.31a3.1 3.1 0 0 0-.15-.85 2 2 0 0 0-.39-.73A2 2 0 0 0 76 146a2.2 2.2 0 0 0-1-.21 2.3 2.3 0 0 0-1 .2 2 2 0 0 0-.69.51 2.3 2.3 0 0 0-.43.75 5 5 0 0 0-.22.86zm10.71-5.87a3.9 3.9 0 0 1-.27 1.5 3.5 3.5 0 0 1-.74 1.12 3.2 3.2 0 0 1-1.07.69 3.4 3.4 0 0 1-1.27.24 3.5 3.5 0 0 1-1.28-.24 3.3 3.3 0 0 1-1.07-.69 3.5 3.5 0 0 1-.73-1.12 4.13 4.13 0 0 1 0-3 3.4 3.4 0 0 1 .73-1.12 3.3 3.3 0 0 1 1.07-.7 3.5 3.5 0 0 1 1.28-.24 3.4 3.4 0 0 1 1.27.24 3.2 3.2 0 0 1 1.07.7 3.4 3.4 0 0 1 .74 1.12 3.9 3.9 0 0 1 .27 1.5m-.71 0A3.4 3.4 0 0 0 87 141a2.9 2.9 0 0 0-.54-.92 2.35 2.35 0 0 0-.84-.58 2.6 2.6 0 0 0-1.06-.21 2.7 2.7 0 0 0-1.07.21 2.3 2.3 0 0 0-.83.58 2.9 2.9 0 0 0-.54.92 3.4 3.4 0 0 0-.2 1.18 3.4 3.4 0 0 0 .2 1.18 2.7 2.7 0 0 0 .54.92 2.3 2.3 0 0 0 .83.59 2.7 2.7 0 0 0 1.07.21 2.6 2.6 0 0 0 1.06-.21 2.4 2.4 0 0 0 .84-.59 2.7 2.7 0 0 0 .54-.92 3.4 3.4 0 0 0 .16-1.17m-1.67 1.95a6.4 6.4 0 0 0-.51-.83 6 6 0 0 0-.48-.64h-.66v1.47h-.69v-3.8a5 5 0 0 1 .55-.09h.54a2.2 2.2 0 0 1 1.29.32 1.08 1.08 0 0 1 .44 1 1 1 0 0 1-.19.63 1.25 1.25 0 0 1-.55.42l.23.29.26.39c.1.15.19.3.28.45s.17.32.24.47zm-1.65-2h.37A2 2 0 0 0 85 142a.48.48 0 0 0 .29-.5.53.53 0 0 0-.29-.5 1.5 1.5 0 0 0-.67-.14h-.45z"/>
</svg>
