<svg xmlns="http://www.w3.org/2000/svg" viewBox="0 0 498.47 128">
  <defs>
    <linearGradient id="a" x1="27.44" x2="96.47" y1="22.84" y2="22.84" gradientUnits="userSpaceOnUse">
      <stop offset="0" stop-color="#4eb648"/>
      <stop offset=".85" stop-color="#62b946"/>
    </linearGradient>
    <linearGradient id="b" x1="13" x2="230.93" y1="59.07" y2="59.07" gradientUnits="userSpaceOnUse">
      <stop offset=".27" stop-color="#ed2d2c"/>
      <stop offset=".4" stop-color="#e72c2b"/>
      <stop offset=".59" stop-color="#d52829"/>
      <stop offset=".81" stop-color="#b72224"/>
      <stop offset="1" stop-color="#981c20"/>
    </linearGradient>
    <style>
      :root,svg{color-scheme:light dark;supported-color-schemes:light dark}@media (prefers-color-scheme:dark){#dns{fill:#fff}}
    </style>
  </defs>
  <g style="isolation:isolate">
    <path id="dns" d="M241.67 14.93A183 183 0 0 1 269.39 13c17.22 0 28.39 3.1 37.14 9.69 9.42 7 15.34 18.17 15.34 34.18 0 17.36-6.32 29.34-15.07 36.74-9.55 7.94-24.09 11.71-41.85 11.71a178 178 0 0 1-23.28-1.32zm20.59 74a37 37 0 0 0 7.13.41c18.57.13 30.68-10.1 30.68-31.76.14-18.84-10.9-28.8-28.53-28.8a43 43 0 0 0-9.28.8zm73.07 15.49v-90.7h24L378.13 47a263 263 0 0 1 14.8 31h.4a338 338 0 0 1-1.74-37.81V13.72h18.84v90.7h-21.54l-19.38-35a338 338 0 0 1-15.74-32l-.4.13c.53 12 .8 24.77.8 39.57v27.32zm93.53-21.13a52.3 52.3 0 0 0 22.75 5.65c9.42 0 14.4-3.9 14.4-9.82 0-5.65-4.31-8.88-15.21-12.79-15.07-5.24-24.9-13.59-24.9-26.78 0-15.47 12.92-27.32 34.32-27.32a55.6 55.6 0 0 1 23.15 4.58l-4.58 16.55a43.1 43.1 0 0 0-19-4.3c-8.89 0-13.19 4-13.19 8.74 0 5.79 5.11 8.35 16.82 12.79 16 5.92 23.55 14.26 23.55 27.05 0 15.21-11.71 28.13-36.6 28.13-10.37 0-20.59-2.7-25.71-5.52z"/>
    <path fill="url(#a)" d="M31.76 13.72h64.71L92.17 32H27.44z"/>
    <path fill="url(#b)" d="M145.39 31.9q-7.63 36.26-15.28 72.52h-21.76Q116 68.16 123.63 31.9h-23.1l4.3-18.16h76.93l-4.45 18.16zm50.7 54.77 15.57-72.95H190q-9.66 45.35-19.34 90.7h60.21V86.67zM26 46.64l-13 57.78h18.53l9.36-39.56H75.5l4.3-18.25z"/>
  </g>
</svg>
